<?xml version="1.0" standalone="no"?>
<!DOCTYPE svg PUBLIC "-//W3C//DTD SVG 20010904//EN"
 "http://www.w3.org/TR/2001/REC-SVG-20010904/DTD/svg10.dtd">
<svg version="1.0" xmlns="http://www.w3.org/2000/svg"
 width="256.000000pt" height="256.000000pt" viewBox="0 0 256.000000 256.000000"
 preserveAspectRatio="xMidYMid meet">

<g transform="translate(0.000000,256.000000) scale(0.100000,-0.100000)"
fill="#fff" stroke="none">
<path d="M1210 2422 c-69 -36 -886 -555 -913 -580 -15 -14 -32 -42 -37 -61 -6
-22 -10 -227 -10 -506 0 -468 0 -471 23 -515 21 -42 48 -61 452 -317 498 -316
520 -328 572 -318 24 4 199 108 483 287 245 155 456 290 469 302 50 45 51 51
51 566 0 515 0 520 -51 567 -31 28 -874 561 -916 579 -44 19 -82 18 -123 -4z
m225 -518 c125 -30 267 -118 338 -210 21 -26 37 -50 37 -53 0 -3 -62 -41 -137
-83 l-137 -77 -44 39 c-127 112 -318 106 -438 -14 -157 -158 -111 -418 91
-516 74 -35 189 -35 265 1 30 14 70 40 89 57 18 18 35 32 37 32 13 0 274 -156
274 -164 0 -5 -37 -46 -82 -90 -131 -128 -269 -186 -448 -186 -182 0 -318 58
-451 189 -93 93 -145 180 -174 296 -19 77 -19 234 0 310 90 349 430 553 780
469z"/>
</g>
</svg>
