<svg width="29" height="26" xmlns="http://www.w3.org/2000/svg" xmlns:xlink="http://www.w3.org/1999/xlink" xml:space="preserve" overflow="hidden"><g><path d="M22.0984 18.4153C22.6409 18.4153 23.0806 18.8551 23.0806 19.3975 23.0806 19.9399 22.6408 20.3797 22.0984 20.3797 21.556 20.3797 21.1163 19.9399 21.1163 19.3975 21.1163 18.8551 21.556 18.4153 22.0984 18.4153ZM25.2904 18.4153C25.8329 18.4153 26.2726 18.8551 26.2726 19.3975 26.2726 19.9399 25.8329 20.3797 25.2904 20.3797 24.748 20.3797 24.3083 19.9399 24.3083 19.3975 24.3083 18.8551 24.748 18.4153 25.2904 18.4153ZM15.923 31.2484C15.4731 29.8005 15.2234 28.2004 15.2234 26.5181L15.2327 25.9547C13.8476 26.7146 12.293 27.5002 11.7858 27.5002 10.4753 27.5002 12.9183 24.471 16.1152 21.2121 16.4167 20.3693 16.7879 19.5844 17.218 18.8728 17.5324 14.8949 20.257 11.7858 23.5716 11.7858 26.8863 11.7858 29.6108 14.8949 29.9253 18.8728 30.3554 19.5844 30.7266 20.3693 31.0281 21.2121 34.225 24.471 36.668 27.5002 35.3575 27.5002 34.8503 27.5002 33.2957 26.7147 31.9106 25.9547L31.9199 26.5181C31.9199 28.2004 31.6702 29.8005 31.2203 31.2484L29.9557 30.9378C29.9557 27.1596 28.2436 23.935 25.8351 22.6702L23.5716 26.5181 21.3084 22.6707C18.8998 23.9376 17.1877 27.1722 17.1878 30.9945L15.923 31.2484ZM21.1162 16.2055C19.7602 16.2055 18.6609 17.5247 18.6609 19.152 18.6609 20.7793 19.7602 22.0984 21.1162 22.0984 22.4723 22.0984 23.5716 20.7793 23.5716 19.152 23.5716 17.5247 22.4723 16.2055 21.1162 16.2055ZM23.5716 19.152C23.5716 20.2368 24.671 21.3618 26.027 21.3618 27.3831 21.3618 28.4824 20.2368 28.4824 19.152 28.4824 18.0671 27.3831 16.9421 26.027 16.9421 24.671 16.9421 23.5716 18.0671 23.5716 19.152ZM18.6609 31.4289C20.5615 31.4289 22.1469 32.2724 22.5109 33.3932L22.835 33.3932 22.835 34.3753 22.5109 34.3753C22.1469 35.4961 20.5615 36.3396 18.6609 36.3396 16.4912 36.3396 14.7323 35.2403 14.7323 33.8842 14.7323 32.5282 16.4912 31.4289 18.6609 31.4289ZM28.4824 31.4289C30.6521 31.4289 32.411 32.5282 32.411 33.8842 32.411 35.2403 30.6521 36.3396 28.4824 36.3396 26.5817 36.3396 24.9964 35.4961 24.6324 34.3753L24.3083 34.3753 24.3083 33.3932 24.6324 33.3932C24.9964 32.2724 26.5817 31.4289 28.4824 31.4289Z" fill="#FFFFFF" transform="matrix(1.01918 0 0 1 -9.11845 -11.0443)"/></g></svg>