<svg width="13" height="15" xmlns="http://www.w3.org/2000/svg" xmlns:xlink="http://www.w3.org/1999/xlink" xml:space="preserve" overflow="hidden"><g transform="translate(-732 -826)"><path d="M6.12469 0.0979383C6.35698-0.0324035 6.64298-0.0324035 6.87493 0.0979383 8.02269 0.74212 11.4766 2.68117 12.6247 3.32535 12.857 3.45536 13 3.6962 13 3.95688 13 5.24525 13 9.123 13 10.4114 13 10.672 12.857 10.9129 12.6247 11.0432 11.4769 11.6874 8.02303 13.6265 6.87493 14.2706 6.64264 14.401 6.35664 14.401 6.12469 14.2706 4.97693 13.6265 1.52305 11.6874 0.374946 11.0432 0.143 10.9129 0 10.6724 0 10.4117 0 9.12334 0 5.24559 0 3.95722 0 3.69654 0.143 3.4557 0.375288 3.32535 1.52271 2.68117 4.97728 0.74212 6.12469 0.0979383Z" fill="#004482" fill-rule="evenodd" transform="matrix(1 0 0 1.04396 732 826)"/><path d="M0.104 10.7435C0.013 10.6218 0 10.5061 0 10.3505 0 9.06963 0 5.21412 0 3.93293 0 3.67362 0.142658 3.43415 0.374262 3.30482 1.51792 2.6644 4.96017 0.736647 6.10383 0.0958857 6.33543-0.033772 6.64914-0.0310351 6.88075 0.0986225 8.0244 0.739041 11.455 2.65038 12.5987 3.2908 12.691 3.3428 12.7615 3.4054 12.8245 3.48786Z" fill="#659AD2" fill-rule="evenodd" transform="matrix(1 0 0 1.04396 732 826)"/><path d="M6.49998 2.39483C9.14342 2.39483 11.2894 4.54085 11.2894 7.18429 11.2894 9.82773 9.14342 11.9738 6.49998 11.9738 3.85654 11.9738 1.71052 9.82773 1.71052 7.18429 1.71052 4.54085 3.85654 2.39483 6.49998 2.39483ZM6.49998 4.78956C7.82153 4.78956 8.89471 5.8624 8.89471 7.18429 8.89471 8.50584 7.82153 9.57903 6.49998 9.57903 5.17843 9.57903 4.10525 8.50584 4.10525 7.18429 4.10525 5.8624 5.17809 4.78956 6.49998 4.78956Z" fill="#FFFFFF" fill-rule="evenodd" transform="matrix(1 0 0 1.04396 732 826)"/><path d="M12.8238 3.49128C13.0003 3.65651 12.9969 3.90557 12.9969 4.10159 12.9969 5.39988 12.9859 9.09255 13 10.3908 13.0013 10.5263 12.9565 10.669 12.8895 10.7764L6.36075 7.18429Z" fill="#00599C" fill-rule="evenodd" transform="matrix(1 0 0 1.04396 732 826)"/></g></svg>