<svg width="13" height="19" xmlns="http://www.w3.org/2000/svg" xmlns:xlink="http://www.w3.org/1999/xlink" xml:space="preserve" overflow="hidden"><g transform="translate(-732 -500)"><path d="M15.6676 3.60445 14.4838 16.8659 9.16259 18.3411 3.85607 16.868 2.67354 3.60445Z" fill="#264DE4" transform="matrix(1 0 0 1.03593 729.329 500)"/><path d="M13.4703 16.0214 14.4819 4.68894 9.17054 4.68894 9.17054 17.2135Z" fill="#2965F1" transform="matrix(1 0 0 1.03593 729.329 500)"/><path d="M5.38447 9.60819 5.53027 11.2349 9.17054 11.2349 9.17054 9.60819Z" fill="#EBEBEB" transform="matrix(1 0 0 1.03593 729.329 500)"/><path d="M9.17054 6.31567 9.16492 6.31567 5.09151 6.31567 5.23939 7.94241 9.17054 7.94241Z" fill="#EBEBEB" transform="matrix(1 0 0 1.03593 729.329 500)"/><path d="M9.17054 15.5254 9.17054 13.8329 9.16341 13.8348 7.35173 13.3456 7.23592 12.0483 6.35558 12.0483 5.60295 12.0483 5.83085 14.6024 9.16306 15.5275Z" fill="#EBEBEB" transform="matrix(1 0 0 1.03593 729.329 500)"/><path d="M5.73159 0 7.70182 0 7.70182 0.823916 6.55551 0.823916 6.55551 1.64783 7.70182 1.64783 7.70182 2.47175 5.73159 2.47175Z" transform="matrix(1 0 0 1.03593 729.329 500)"/><path d="M8.09587 0 10.0661 0 10.0661 0.716449 8.91979 0.716449 8.91979 0.859738 10.0661 0.859738 10.0661 2.50757 8.09587 2.50757 8.09587 1.7553 9.24219 1.7553 9.24219 1.61201 8.09587 1.61201Z" transform="matrix(1 0 0 1.03593 729.329 500)"/><path d="M10.4602 0 12.4304 0 12.4304 0.716449 11.2841 0.716449 11.2841 0.859738 12.4304 0.859738 12.4304 2.50757 10.4602 2.50757 10.4602 1.7553 11.6065 1.7553 11.6065 1.61201 10.4602 1.61201Z" transform="matrix(1 0 0 1.03593 729.329 500)"/><path d="M11.168 11.2349 10.9792 13.3446 9.16492 13.8343 9.16492 15.5267 12.4998 14.6024 12.5242 14.3276 12.9065 10.045 12.9462 9.60819 13.2399 6.31567 9.16492 6.31567 9.16492 7.94241 11.4571 7.94241 11.3091 9.60819 9.16492 9.60819 9.16492 11.2349Z" fill="#FFFFFF" transform="matrix(1 0 0 1.03593 729.329 500)"/></g></svg>