<svg width="16" height="15" xmlns="http://www.w3.org/2000/svg" xmlns:xlink="http://www.w3.org/1999/xlink" xml:space="preserve" overflow="hidden"><defs><clipPath id="clip0"><rect x="448" y="503" width="16" height="15"/></clipPath></defs><g clip-path="url(#clip0)" transform="translate(-448 -503)"><path d="M7.63344 0C3.41234 0 0 3.4375 0 7.69016 0 11.0895 2.18641 13.967 5.21953 14.9855 5.59875 15.062 5.73766 14.82 5.73766 14.6164 5.73766 14.4381 5.72516 13.827 5.72516 13.1903 3.60172 13.6487 3.15953 12.2736 3.15953 12.2736 2.81828 11.3823 2.31266 11.1533 2.31266 11.1533 1.61766 10.6822 2.36328 10.6822 2.36328 10.6822 3.13422 10.7331 3.53875 11.4716 3.53875 11.4716 4.22109 12.6428 5.32062 12.3119 5.76297 12.1081 5.82609 11.6116 6.02844 11.2678 6.24328 11.0769 4.54969 10.8986 2.76781 10.2366 2.76781 7.28266 2.76781 6.44234 3.07094 5.75484 3.55125 5.22016 3.47547 5.02922 3.21 4.23969 3.62719 3.18297 3.62719 3.18297 4.27172 2.97922 5.725 3.97234 6.3472 3.80402 6.98888 3.71837 7.63344 3.71766 8.27797 3.71766 8.935 3.80687 9.54172 3.97234 10.9952 2.97922 11.6397 3.18297 11.6397 3.18297 12.0569 4.23969 11.7912 5.02922 11.7155 5.22016 12.2084 5.75484 12.4991 6.44234 12.4991 7.28266 12.4991 10.2366 10.7172 10.8858 9.01094 11.0769 9.28906 11.3188 9.52906 11.777 9.52906 12.5028 9.52906 13.5341 9.51656 14.3617 9.51656 14.6163 9.51656 14.82 9.65563 15.062 10.0347 14.9856 13.0678 13.9669 15.2542 11.0895 15.2542 7.69016 15.2667 3.4375 11.8419 0 7.63344 0Z" fill-rule="evenodd" transform="matrix(1.0449 0 0 1 448 503)"/></g></svg>