<svg width="19" height="19" xmlns="http://www.w3.org/2000/svg" xmlns:xlink="http://www.w3.org/1999/xlink" xml:space="preserve" overflow="hidden"><g transform="translate(-712 -500)"><path d="M716.023 500 716.876 500 716.876 500.846 717.663 500.846 717.663 500 718.516 500 718.516 502.561 717.663 502.561 717.663 501.707 716.884 501.707 716.884 502.561 716.023 502.561M719.645 500.854 718.891 500.854 718.891 500 721.255 500 721.255 500.854 720.498 500.854 720.498 502.561 719.645 502.561M721.63 500 722.524 500 723.073 500.902 723.623 500 724.517 500 724.517 502.561 723.663 502.561 723.663 501.291 723.066 502.212 722.469 501.291 722.469 502.561 721.63 502.561M724.94 500 725.794 500 725.794 501.714 727.003 501.714 727.003 502.561 724.94 502.561"/><path d="M715.993 517.479 714.768 503.733 728.232 503.733 727.007 517.471 721.489 519" fill="#E44D26"/><path d="M721.5 517.831 721.5 504.861 727.003 504.861 725.953 516.588" fill="#F16529"/><path d="M717.27 506.542 721.5 506.542 721.5 508.227 719.118 508.227 719.273 509.953 721.5 509.953 721.5 511.634 717.73 511.634M717.804 512.48 719.496 512.48 719.615 513.827 721.5 514.332 721.5 516.091 718.041 515.126" fill="#EBEBEB"/><path d="M725.716 506.542 721.493 506.542 721.493 508.227 725.56 508.227M725.408 509.953 721.493 509.953 721.493 511.638 723.571 511.638 723.374 513.827 721.493 514.332 721.493 516.083 724.944 515.126" fill="#FFFFFF"/></g></svg>