<svg width="15" height="15" xmlns="http://www.w3.org/2000/svg" xmlns:xlink="http://www.w3.org/1999/xlink" xml:space="preserve" overflow="hidden"><g transform="translate(-696 -503)"><path d="M696 503 711 503 711 518 696 518Z" fill="#F7DF1E"/><path d="M706.076 514.719C706.378 515.212 706.771 515.575 707.467 515.575 708.051 515.575 708.424 515.283 708.424 514.88 708.424 514.396 708.04 514.225 707.398 513.944L707.045 513.793C706.028 513.359 705.352 512.816 705.352 511.669 705.352 510.612 706.158 509.807 707.417 509.807 708.313 509.807 708.957 510.119 709.421 510.935L708.324 511.64C708.082 511.207 707.821 511.036 707.417 511.036 707.004 511.036 706.742 511.298 706.742 511.64 706.742 512.063 707.004 512.234 707.609 512.496L707.961 512.647C709.159 513.161 709.835 513.684 709.835 514.861 709.835 516.13 708.838 516.826 707.499 516.826 706.19 516.826 705.345 516.202 704.931 515.384ZM701.097 514.841C701.318 515.234 701.52 515.566 702.004 515.566 702.467 515.566 702.759 515.385 702.759 514.68L702.759 509.887 704.169 509.887 704.169 514.699C704.169 516.159 703.313 516.823 702.064 516.823 700.935 516.823 700.282 516.239 699.95 515.536Z"/></g></svg>