<svg width="20" height="19" xmlns="http://www.w3.org/2000/svg" xmlns:xlink="http://www.w3.org/1999/xlink" xml:space="preserve" overflow="hidden"><g transform="translate(-427 -501)"><path d="M8.51809 17.0313C7.31525 16.8889 5.97984 16.339 4.94393 15.5633 4.47261 15.2049 3.58398 14.3408 3.58398 14.2328 3.58398 14.2083 4.17804 14.1886 5.10594 14.1886L6.62791 14.1886 6.74574 14.4243C7.10413 15.1313 7.84548 16.0984 8.47881 16.6876 8.6801 16.884 8.84212 17.046 8.8323 17.0509 8.82248 17.0607 8.6801 17.0509 8.51809 17.0313Z" transform="matrix(1.05263 0 0 -1 427 520)"/><path d="M10.6587 16.5796C11.184 16.0592 11.724 15.3767 12.0481 14.822L12.2395 14.4979 12.8581 14.7778C13.1969 14.9349 13.6682 15.1313 13.9039 15.2196L14.331 15.3817 14.1248 15.5388C13.0643 16.3488 11.6848 16.9036 10.369 17.0509L10.1579 17.0755 10.6587 16.5796Z" transform="matrix(1.05263 0 0 -1 427 520)"/><path d="M9.12196 16.2752C8.59664 15.8186 7.98785 15.0773 7.56563 14.3752L7.45271 14.1886 9.49509 14.1886C10.747 14.1886 11.5375 14.2083 11.5375 14.2328 11.5375 14.2623 11.3804 14.5225 11.184 14.8121 10.9385 15.1804 10.6439 15.5338 10.2119 15.9708 9.86822 16.3145 9.56382 16.5943 9.53928 16.5943 9.51473 16.5943 9.32817 16.4519 9.12196 16.2752Z" transform="matrix(1.05263 0 0 -1 427 520)"/><path d="M15.6615 15.7106C15.1313 15.6271 15.1313 15.6271 15.4602 15.2982L15.7499 15.0085 16.1917 15.0183C16.884 15.0331 17.1344 14.8809 17.1344 14.4292 17.1344 14.3015 17.1 14.1052 17.0607 13.9922 16.9576 13.7026 16.9674 13.5848 17.1 13.462 17.2375 13.3295 17.4829 13.3196 17.591 13.4424 17.807 13.678 17.9346 14.4537 17.8217 14.8514 17.7382 15.1558 17.4437 15.4749 17.1245 15.6124 16.83 15.7401 16.1377 15.7842 15.6615 15.7106Z" transform="matrix(1.05263 0 0 -1 427 520)"/><path d="M14.2868 14.5863C14.0021 14.4832 13.6731 14.3506 13.5504 14.2966L13.3295 14.1935 14.3997 14.1935C14.984 14.1886 15.4651 14.2034 15.4651 14.2181 15.4651 14.3015 14.984 14.7778 14.9005 14.7729 14.8465 14.7729 14.5716 14.6894 14.2868 14.5863Z" transform="matrix(1.05263 0 0 -1 427 520)"/><path d="M11.6602 13.3736C11.1938 13.1282 10.0891 12.4506 9.37726 11.9793 8.27261 11.238 6.57881 9.95659 6.57881 9.8584 6.57881 9.83876 7.9584 9.81912 9.64729 9.81912 12.3623 9.81912 12.7207 9.82894 12.7501 9.89276 12.7894 10.0008 12.6863 10.914 12.5685 11.4982 12.4359 12.1413 11.9941 13.5013 11.9155 13.5013 11.9106 13.5013 11.7928 13.4424 11.6602 13.3736Z" transform="matrix(1.05263 0 0 -1 427 520)"/><path d="M2.73463 12.9269C2.30258 12.0775 2.01292 11.1005 1.93437 10.2021L1.9 9.81912 3.64289 9.81912C5.2385 9.81912 5.3907 9.82403 5.45943 9.90749 5.50853 9.9615 5.55762 10.1824 5.59199 10.5065 5.70982 11.5571 5.93075 12.5047 6.2646 13.3736 6.29406 13.4424 6.12713 13.4522 4.64935 13.4522L3.00465 13.4522 2.73463 12.9269Z" transform="matrix(1.05263 0 0 -1 427 520)"/><path d="M6.9323 13.0742C6.84884 12.863 6.74083 12.5341 6.68191 12.3426 6.52481 11.8075 6.29897 10.6537 6.35297 10.6537 6.3677 10.6537 6.50517 10.7618 6.66227 10.8894 7.37907 11.4835 8.7292 12.4359 10.0891 13.2951L10.3346 13.4522 8.70465 13.4522 7.07468 13.4522 6.9323 13.0742Z" transform="matrix(1.05263 0 0 -1 427 520)"/><path d="M12.7649 13.4227C12.7649 13.408 12.8287 13.2116 12.9072 12.9907 13.1773 12.2297 13.3884 11.1791 13.4817 10.153L13.5111 9.81912 15.2982 9.81912C16.8152 9.81912 17.0902 9.82894 17.1147 9.88785 17.154 9.99586 17.0018 10.9581 16.8643 11.4835 16.722 12.0137 16.3685 12.8729 16.1525 13.2214L16.0052 13.4522 14.385 13.4522C13.4915 13.4522 12.7649 13.4375 12.7649 13.4227Z" transform="matrix(1.05263 0 0 -1 427 520)"/><path d="M1.91473 9.01395C1.91473 8.60646 2.13075 7.52636 2.30749 7.05504L2.41059 6.7801 2.85736 7.29561C3.09793 7.58036 3.58889 8.11059 3.93747 8.4739L4.58062 9.13178 3.24522 9.13178 1.91473 9.13178 1.91473 9.01395Z" transform="matrix(1.05263 0 0 -1 427 520)"/><path d="M6.28424 8.86176C6.28424 8.09096 6.60336 6.66718 6.99612 5.70982L7.07959 5.49871 9.52455 5.49871 11.9646 5.49871 12.1168 5.9062C12.4506 6.78992 12.6716 7.78165 12.7403 8.6801L12.7796 9.13178 9.52946 9.13178 6.28424 9.13178 6.28424 8.86176Z" transform="matrix(1.05263 0 0 -1 427 520)"/><path d="M13.4817 8.80284C13.3884 7.77183 13.2165 6.8832 12.9367 6.05349 12.8434 5.77364 12.7649 5.52817 12.7649 5.51835 12.7649 5.50853 13.5013 5.49871 14.4047 5.49871L16.0444 5.49871 16.3145 6.05349C16.7465 6.91757 17.0165 7.85039 17.1098 8.80284L17.1442 9.13178 15.3276 9.13178 13.5111 9.13178 13.4817 8.80284Z" transform="matrix(1.05263 0 0 -1 427 520)"/><path d="M4.76718 8.27261C4.03075 7.5509 3.36305 6.81938 2.95065 6.26951L2.73953 5.99457 2.877 5.74419 3.00956 5.49871 4.65426 5.49871C6.12713 5.49871 6.29406 5.50853 6.2646 5.57726 5.91111 6.49535 5.74419 7.25142 5.55762 8.71447L5.52326 9.00904 4.76718 8.27261Z" transform="matrix(1.05263 0 0 -1 427 520)"/><path d="M1.70362 5.75891C1.01137 4.61008 0.824806 3.80982 1.11938 3.2354 1.30103 2.87209 1.57106 2.68062 2.04238 2.57261 2.56279 2.45969 3.02429 2.49897 3.1814 2.67571 3.31395 2.83282 3.31886 2.99483 3.19121 3.1323 3.10284 3.22558 3.03902 3.24031 2.71008 3.24031 2.25349 3.24031 1.98837 3.30904 1.83618 3.46124 1.60052 3.6969 1.71344 4.33023 2.11111 5.01757L2.30749 5.36124 2.13075 5.67545C2.03256 5.84729 1.93928 5.99948 1.91473 6.01421 1.89018 6.02894 1.7969 5.91111 1.70362 5.75891Z" transform="matrix(1.05263 0 0 -1 427 520)"/><path d="M3.72636 4.52171C4.68863 3.37287 6.17623 2.45969 7.67855 2.09147 8.07132 1.99328 8.83721 1.86072 8.83721 1.89018 8.83721 1.89018 8.577 2.16021 8.26279 2.48424 7.6491 3.10284 7.15814 3.75581 6.82429 4.38424L6.623 4.76227 5.07158 4.76227 3.52506 4.76227 3.72636 4.52171Z" transform="matrix(1.05263 0 0 -1 427 520)"/><path d="M7.51654 4.65426C7.6491 4.39897 8.08605 3.78036 8.38553 3.42196 8.71447 3.02429 9.46072 2.34186 9.53437 2.36641 9.63256 2.40078 10.2119 2.94574 10.5506 3.31886 10.8845 3.69199 11.5375 4.61499 11.5375 4.71809 11.5375 4.74264 10.6439 4.76227 9.5 4.76227L7.45762 4.76227 7.51654 4.65426Z" transform="matrix(1.05263 0 0 -1 427 520)"/><path d="M12.1364 4.25659C11.7191 3.53979 11.3018 2.99974 10.7176 2.42041 10.4377 2.14057 10.2119 1.90982 10.2119 1.9 10.2119 1.87054 10.8354 1.95891 11.1742 2.03747 11.7388 2.16512 12.269 2.35659 12.8385 2.62661 13.4669 2.93101 13.9039 3.21576 14.4685 3.68708 14.8318 3.99147 15.416 4.60026 15.4553 4.71809 15.4651 4.74264 14.876 4.76227 13.953 4.76227L12.4359 4.76227 12.1364 4.25659Z" transform="matrix(1.05263 0 0 -1 427 520)"/></g></svg>