<svg width="15" height="15" xmlns="http://www.w3.org/2000/svg" xmlns:xlink="http://www.w3.org/1999/xlink" xml:space="preserve" overflow="hidden"><defs><linearGradient x1="1.45268" y1="1.33702" x2="8.83958" y2="8.70747" gradientUnits="userSpaceOnUse" spreadMethod="pad" id="fill0"><stop offset="0" stop-color="#387EB8"/><stop offset="1" stop-color="#366994"/></linearGradient><linearGradient x1="6.094" y1="5.96146" x2="13.8492" y2="13.6994" gradientUnits="userSpaceOnUse" spreadMethod="pad" id="fill1"><stop offset="0" stop-color="#FFE052"/><stop offset="1" stop-color="#FFC331"/></linearGradient></defs><g transform="translate(-730 -680)"><path d="M7.43648 0.00423489C3.63771 0.00423517 3.87493 1.65161 3.87493 1.65161L3.87916 3.35827 7.50422 3.35827 7.50422 3.8707 2.4393 3.8707C2.4393 3.8707 0.00846978 3.59501 0.00846978 7.42799 0.00846949 11.261 2.13015 11.1251 2.13015 11.1251L3.39639 11.1251 3.39639 9.34641C3.39639 9.34641 3.32813 7.22473 5.48419 7.22473L9.07963 7.22473C9.07963 7.22473 11.0996 7.25736 11.0996 5.27245L11.0996 1.9904C11.0996 1.9904 11.4064 0.00423489 7.43648 0.00423489L7.43648 0.00423489 7.43648 0.00423489ZM5.43761 1.15189C5.79827 1.15189 6.08977 1.4434 6.08977 1.80407 6.08977 2.16473 5.79827 2.45624 5.43761 2.45624 5.07694 2.45624 4.78543 2.16473 4.78543 1.80407 4.78543 1.4434 5.07694 1.15189 5.43761 1.15189L5.43761 1.15189 5.43761 1.15189Z" fill="url(#fill0)" transform="matrix(1 0 0 1.00392 730 680)"/><path d="M7.54436 14.8902C11.3431 14.8902 11.1059 13.2428 11.1059 13.2428L11.1017 11.5362 7.47662 11.5362 7.47662 11.0238 12.5415 11.0238C12.5415 11.0238 14.9723 11.2995 14.9723 7.46643 14.9723 3.63345 12.8507 3.76938 12.8507 3.76938L11.5845 3.76938 11.5845 5.54803C11.5845 5.54803 11.6527 7.66969 9.49664 7.66969L5.90121 7.66969C5.90121 7.66969 3.88117 7.63705 3.88117 9.62197L3.88117 12.904C3.88117 12.904 3.57448 14.8902 7.54436 14.8902L7.54436 14.8902 7.54436 14.8902ZM9.54322 13.7426C9.18258 13.7426 8.89107 13.4511 8.89107 13.0904 8.89107 12.7297 9.18258 12.4382 9.54322 12.4382 9.90392 12.4382 10.1954 12.7297 10.1954 13.0904 10.1954 13.4511 9.90392 13.7426 9.54322 13.7426L9.54322 13.7426 9.54322 13.7426Z" fill="url(#fill1)" transform="matrix(1 0 0 1.00392 730 680)"/></g></svg>