<svg width="17" height="15" xmlns="http://www.w3.org/2000/svg" xmlns:xlink="http://www.w3.org/1999/xlink" xml:space="preserve" overflow="hidden"><defs><clipPath id="clip0"><rect x="676" y="503" width="17" height="15"/></clipPath></defs><g clip-path="url(#clip0)" transform="translate(-676 -503)"><path d="M1.4809 0C1.4809 0.817877 0.817877 1.4809-3.44462e-08 1.4809-0.817877 1.4809-1.4809 0.817877-1.4809-3.44462e-08-1.4809-0.817877-0.817877-1.4809 3.44462e-08-1.4809 0.817877-1.4809 1.4809-0.817877 1.4809 0Z" fill="#61DAFB" transform="matrix(1 0 0 1.01471 684.5 510.5)"/><path d="M7.94628 0C7.94628 1.67565 4.38861 3.03403-1.28322e-15 3.03403-4.38861 3.03403-7.94628 1.67565-7.94628-1.37785e-07-7.94628-1.67565-4.38861-3.03403 0-3.03403 4.38861-3.03403 7.94628-1.67565 7.94628 0Z" stroke="#61DAFB" stroke-width="0.722389" fill="none" transform="matrix(1 0 0 1.01471 684.5 510.5)"/><path d="M7.97501 0C7.97501 1.68171 4.40448 3.04501-1.28786e-15 3.04501-4.40448 3.04501-7.97501 1.68171-7.97501-1.38283e-07-7.97501-1.68171-4.40448-3.04501 0-3.04501 4.40448-3.04501 7.97501-1.68171 7.97501 0Z" stroke="#61DAFB" stroke-width="0.725001" fill="none" transform="matrix(0.498198 0.875594 -0.862905 0.505525 684.5 510.5)"/><path d="M7.97501 0C7.97501 1.68171 4.40448 3.04501-1.28786e-15 3.04501-4.40448 3.04501-7.97501 1.68171-7.97501-1.38283e-07-7.97501-1.68171-4.40448-3.04501 0-3.04501 4.40448-3.04501 7.97501-1.68171 7.97501 0Z" stroke="#61DAFB" stroke-width="0.725001" fill="none" transform="matrix(-0.498198 0.875594 -0.862905 -0.505525 684.5 510.5)"/></g></svg>