<svg width="25" height="24" xmlns="http://www.w3.org/2000/svg" xmlns:xlink="http://www.w3.org/1999/xlink" xml:space="preserve" overflow="hidden"><defs><clipPath id="clip0"><rect x="725" y="877" width="25" height="24"/></clipPath><linearGradient x1="5.30146" y1="5.29776" x2="18.6625" y2="18.7022" gradientUnits="userSpaceOnUse" spreadMethod="pad" id="fill1"><stop offset="0" stop-color="#61DEFF"/><stop offset="1" stop-color="#0044FF"/></linearGradient></defs><g clip-path="url(#clip0)" transform="translate(-725 -877)"><path d="M23.9741 0C23.9884 -4.26326e-18 24 0.0115743 24 0.025852L24 23.9741C24 23.9884 23.9884 24 23.9741 24L0.0517033 24C0.0374257 24 0.0258513 23.9884 0.0258513 23.9741L0.0258513 0.0258524C0.0258513 0.0115747 0.0374257 4.20785e-07 0.0517033 4.20785e-07Z" fill="#FFFFFF" transform="matrix(1.04167 0 0 1 725 877)"/><path d="M8.35018 19.4591C7.58909 19.4591 6.06686 19.4591 5.3101 18.7022 4.55329 17.9454 4.56191 16.4317 4.56191 14.7022 4.56191 12.9727 4.55329 11.0273 4.54897 9.29774 4.54466 7.56821 4.54466 6.05462 5.30146 5.29776 6.05827 4.54095 7.57186 4.54095 9.29702 4.54095 11.0222 4.54095 12.9588 4.54095 14.684 4.54095 16.4091 4.54095 17.9227 4.54095 18.6794 5.29349 19.4362 6.04608 19.4362 7.55112 19.4362 9.28066 19.4362 11.0102 19.4362 12.9641 19.432 14.6979 19.4278 16.4318 19.4193 17.9454 18.6625 18.7022 17.9057 19.4591 16.4005 19.4591 14.6839 19.4591 12.9673 19.4591 11.0393 19.4591 10.0753 19.4591 9.11126 19.4591 9.11126 19.4591 8.35018 19.4591Z" fill="url(#fill1)" transform="matrix(1.04167 0 0 1 725 877)"/><path d="M19.6328 11.3711C19.6373 11.3711 19.641 11.3748 19.641 11.3793L19.641 12.6243C19.641 12.6288 19.6373 12.6325 19.6328 12.6325L4.36371 12.6325C4.35916 12.6325 4.35547 12.6288 4.35547 12.6243L4.35547 11.3793C4.35547 11.3748 4.35916 11.3711 4.36371 11.3711Z" fill="#FFFFFF" transform="matrix(1.04167 0 0 1 725 877)"/><path d="M19.633-12.6493C19.6376-12.6493 19.6413-12.6456 19.6413-12.641L19.6413-11.3963C19.6413-11.3917 19.6376-11.388 19.633-11.388L4.21313-11.388C4.20854-11.388 4.20481-11.3917 4.20481-11.3963L4.20481-12.641C4.20481-12.6456 4.20854-12.6493 4.21313-12.6493Z" fill="#FFFFFF" transform="matrix(6.37836e-17 1 -1.04167 6.12323e-17 725 877)"/></g></svg>