<svg width="17" height="18" xmlns="http://www.w3.org/2000/svg" xmlns:xlink="http://www.w3.org/1999/xlink" xml:space="preserve" overflow="hidden"><g transform="translate(-27 -307)"><path d="M16.3359 15.1074C16.3359 15.1672 16.3359 15.2336 16.3359 15.2934 16.3094 15.3797 16.2895 15.466 16.2563 15.5523 16.1168 15.9375 15.8047 16.1102 15.4328 16.2031 15.2602 16.2496 15.0742 16.2695 14.8949 16.3027 10.6316 16.3027 6.36172 16.3027 2.09844 16.3027 1.91914 16.2695 1.73984 16.243 1.56055 16.2031 1.14883 16.1035 0.816797 15.8977 0.703906 15.4527 0.690625 15.3996 0.670703 15.3465 0.657422 15.2934 0.657422 15.2336 0.657422 15.1672 0.657422 15.1074 1.05586 15.1074 1.44766 15.1074 1.86602 15.1074 1.86602 14.0516 1.86602 13.0223 1.86602 11.9531 2.47031 12.5773 3.2207 12.6902 4.0043 12.6836 4.78125 12.677 5.53164 12.5574 6.08281 11.9465 6.29531 12.0859 6.49453 12.2453 6.72031 12.3516 7.29805 12.6371 7.92227 12.6836 8.55313 12.6836 9.13086 12.677 9.70859 12.6238 10.2398 12.3715 10.4723 12.2586 10.6781 12.0992 10.9105 11.9531 11.4484 12.5574 12.1988 12.677 12.9758 12.6836 13.7527 12.6902 14.5031 12.5906 15.1207 11.9664 15.1207 13.0223 15.1207 14.0516 15.1207 15.1074 15.5457 15.1074 15.9375 15.1074 16.3359 15.1074ZM2.74258 11.827C3.41328 12.1391 4.11719 12.1391 4.82109 11.9797 5.3125 11.8734 5.7043 11.641 5.80391 11.0898 5.83047 10.9504 5.96328 10.8707 6.10273 10.8773 6.25547 10.8906 6.35508 10.9703 6.38164 11.1164 6.41484 11.3289 6.52109 11.4949 6.68047 11.6145 6.8332 11.7207 6.99922 11.827 7.17188 11.8801 8.00859 12.1391 8.85859 12.1391 9.70195 11.9199 10.1469 11.8004 10.5187 11.5812 10.625 11.0699 10.6516 10.9305 10.7777 10.8641 10.9172 10.8773 11.0633 10.884 11.1695 10.9703 11.1895 11.1164 11.2559 11.5281 11.5148 11.7672 11.8867 11.8934 12.6305 12.1457 13.3875 12.1457 14.1379 11.8801 14.5164 11.7473 14.8086 11.4949 14.9547 11.1031 14.9813 11.0234 15.0145 10.9172 14.9879 10.8375 14.8617 10.4789 14.6293 10.1934 14.3105 9.97422 13.9719 9.7418 13.5867 9.66211 13.1816 9.66211 11.6211 9.66211 10.0605 9.66211 8.5 9.66211 6.92617 9.66211 5.35898 9.66211 3.78516 9.66211 2.9418 9.66211 2.3043 10.0672 2.01211 10.791 1.98555 10.8508 1.98555 10.9305 2.00547 10.9902 2.125 11.3887 2.38398 11.6609 2.74258 11.827ZM6.69375 6.97266C6.69375 7.44414 6.69375 7.90898 6.69375 8.37383 6.69375 8.82539 6.92617 9.06445 7.38437 9.06445 7.92227 9.06445 8.4668 9.06445 9.00469 9.06445 9.46289 9.06445 9.69531 8.83203 9.69531 8.38047 9.69531 7.76953 9.70195 7.15859 9.69531 6.54766 9.69531 6.18242 9.78164 5.85703 9.99414 5.5582 10.0605 5.46523 10.1203 5.37227 10.1734 5.27266 10.2664 5.1 10.2199 4.8543 10.0871 4.72148 9.9543 4.59531 9.80156 4.58867 9.5957 4.68164 9.38984 4.76797 9.18398 4.8543 8.97149 4.9207 8.51328 5.0668 8.0418 5.1 7.57031 5.1 6.84648 5.10664 6.24219 5.68437 6.20234 6.40156 6.16914 6.7668 6.31523 6.93281 6.69375 6.97266ZM8.22109 4.19688C8.17461 4.04414 8.12813 3.91133 8.08828 3.77852 7.95547 3.37344 7.99531 3.00156 8.2875 2.66289 8.43359 2.49687 8.51992 2.27773 8.62617 2.09844 8.69258 2.31758 8.77891 2.57656 8.85195 2.84219 8.91836 3.09453 8.925 3.34688 8.83867 3.59258 8.76562 3.79844 8.67266 3.99102 8.57305 4.23008 8.75234 4.14375 8.91172 4.0707 9.05781 3.97773 9.58242 3.63906 9.75508 3.16094 9.57578 2.56328 9.42305 2.05859 9.15078 1.61367 8.82539 1.20859 8.68594 1.03594 8.51992 0.869922 8.36055 0.697266 8.30078 0.869922 8.27422 1.00937 8.20781 1.13555 8.03516 1.44102 7.84922 1.73984 7.66328 2.03867 7.41758 2.43047 7.27812 2.84219 7.37109 3.31367 7.45742 3.76523 7.79609 4.12383 8.22109 4.19688Z" fill="#FFFFFF" transform="matrix(1 0 0 1.05882 27 307)"/></g></svg>