<svg width="17" height="17" xmlns="http://www.w3.org/2000/svg" xmlns:xlink="http://www.w3.org/1999/xlink" xml:space="preserve" overflow="hidden"><g transform="translate(-27 -355)"><path d="M34.2051 357.118C32.8438 357.178 31.5754 357.371 31.1703 357.577 30.9777 357.676 30.7121 357.915 30.5859 358.114 30.5328 358.194 30.3137 358.745 30.0945 359.336 29.8754 359.934 29.6762 360.465 29.6562 360.518L29.6098 360.625 29.0187 360.625C28.3281 360.625 28.2219 360.651 27.9828 360.864 27.7504 361.076 27.6641 361.269 27.6641 361.574 27.6641 361.787 27.6773 361.846 27.7504 361.986 27.9363 362.345 28.2418 362.53 28.6668 362.53 28.8328 362.53 28.8992 362.544 28.8992 362.57 28.8992 362.59 28.8328 362.803 28.7465 363.035 28.4676 363.812 28.4742 363.646 28.4742 366.475L28.4742 368.965 28.5738 369.171C28.9723 369.981 30.0082 370.161 30.6391 369.536 30.9246 369.251 31.0242 368.925 31.0242 368.321L31.0242 367.982 35.5 367.982 39.9758 367.982 39.9758 368.334C39.9758 368.527 39.9957 368.786 40.0223 368.905 40.1285 369.423 40.5336 369.802 41.0715 369.902 41.6094 369.995 42.2004 369.676 42.4395 369.151L42.5258 368.972 42.5258 366.482C42.5258 363.653 42.5391 363.819 42.2535 363.042 42.1672 362.809 42.1008 362.604 42.1008 362.577 42.1008 362.55 42.1672 362.537 42.3332 362.537 42.7516 362.537 43.0637 362.358 43.2496 361.993 43.316 361.86 43.3359 361.787 43.3359 361.594 43.3359 361.282 43.2496 361.083 43.0238 360.877 42.7715 360.651 42.6719 360.625 41.968 360.625L41.3703 360.625 40.9453 359.469C40.7129 358.838 40.4938 358.261 40.4473 358.181 40.3277 357.968 40.0555 357.696 39.8496 357.59 39.1723 357.225 36.6156 357.012 34.2051 357.118ZM39.657 360.113C39.916 360.897 40.1352 361.554 40.1352 361.568 40.1352 361.581 38.05 361.587 35.5066 361.587 32.9566 361.587 30.8781 361.581 30.8781 361.568 30.8781 361.554 31.0973 360.897 31.3563 360.113L31.8344 358.679 35.5 358.679 39.1789 358.679 39.657 360.113ZM31.1039 363.593C31.8211 363.945 31.8211 364.974 31.1039 365.32 30.8781 365.426 30.5926 365.439 30.3469 365.359 30.1344 365.286 29.8621 365.014 29.7957 364.808 29.6164 364.284 29.8687 363.746 30.3801 363.56 30.5926 363.48 30.898 363.5 31.1039 363.593ZM40.5934 363.546C41.0914 363.699 41.377 364.27 41.2109 364.788 41.1312 365.021 40.8656 365.286 40.6398 365.359 40.4074 365.439 40.0754 365.419 39.8762 365.313 39.5973 365.173 39.3914 364.875 39.3648 364.556 39.2918 363.865 39.9227 363.347 40.5934 363.546Z" fill="#FFFFFF"/></g></svg>