<svg width="19" height="19" xmlns="http://www.w3.org/2000/svg" xmlns:xlink="http://www.w3.org/1999/xlink" xml:space="preserve" overflow="hidden"><g transform="translate(-26 -377)"><path d="M43.8941 383.145 36.1309 380.473C35.6484 380.295 35.7449 380.295 35.2699 380.473L27.4621 383.123C26.9797 383.294 26.9797 383.583 27.4695 383.754L29.325 384.385C28.5012 385.186 28.4492 386.018 28.4418 386.975 28.1227 387.094 27.9 387.405 27.9 387.769 27.9 388.103 28.093 388.393 28.3676 388.534 28.234 389.513 27.8629 390.627 26.757 391.948 27.2988 392.371 27.5809 392.519 28.0113 392.66 29.5625 391.992 29.3695 390.226 29.2508 388.459 29.466 388.304 29.5996 388.059 29.5996 387.769 29.5996 387.465 29.4363 387.198 29.1988 387.049 29.2285 386.107 29.4289 385.261 30.134 384.719 30.1414 384.704 30.1562 384.689 30.1859 384.682L31.3066 385.068 35.3441 386.441C35.8266 386.619 35.7301 386.619 36.2051 386.441L43.909 383.784C44.384 383.605 44.3766 383.323 43.8941 383.145L43.8941 383.145 43.8941 383.145Z" fill="#FFFFFF"/><path d="M36.1977 387.695C35.7152 387.866 35.8191 387.866 35.3367 387.695L31.2992 386.322 30.2973 385.98 30.2973 389.803 30.2973 389.803 30.2973 389.803 30.2973 389.847 30.2973 389.847C30.3641 390.931 32.8727 391.807 35.9453 391.807 39.018 391.807 41.5266 390.931 41.5934 389.847L41.5934 389.847 41.5934 385.839 36.1977 387.695Z" fill="#FFFFFF"/></g></svg>