<svg width="11" height="18" xmlns="http://www.w3.org/2000/svg" xmlns:xlink="http://www.w3.org/1999/xlink" xml:space="preserve" overflow="hidden"><g transform="translate(-30 -331)"><path d="M5.1085 16.9475C4.37303 16.8892 3.72635 16.7143 3.081 16.3989 1.15024 15.4554-0.0596322 13.453 0.00397548 11.3102 0.0291535 10.5085 0.2054 9.77969 0.541991 9.08398 0.686433 8.78582 0.784495 8.6162 0.980619 8.32201 1.06675 8.1948 2.11496 6.50787 3.3129 4.57578 4.50952 2.64237 5.49412 1.06013 5.49942 1.06013 5.50472 1.06013 6.48931 2.64237 7.68593 4.57446 8.88388 6.50787 9.93208 8.1948 10.0182 8.32201 10.2143 8.6162 10.3124 8.78582 10.4568 9.08398 11.0147 10.2355 11.1459 11.5607 10.8266 12.8223 10.5032 14.0918 9.73728 15.2009 8.6533 15.9642 7.73099 16.6149 6.59798 16.97 5.46761 16.9607 5.34305 16.9594 5.18138 16.9541 5.1085 16.9475ZM5.94997 14.6099C6.53304 14.5039 7.02733 14.2508 7.43415 13.8479 8.4532 12.8395 8.52741 11.2241 7.60642 10.1216 7.1625 9.58886 6.52377 9.243 5.82541 9.15686 5.67434 9.13831 5.3245 9.13831 5.17343 9.15686 4.04307 9.296 3.11943 10.1044 2.83584 11.2029 2.649 11.9251 2.76694 12.7083 3.15786 13.3404 3.59516 14.0441 4.30015 14.5012 5.14162 14.6232 5.3139 14.6483 5.77903 14.6404 5.94997 14.6099Z" fill="#FFFFFF" transform="matrix(-1 0 0 -1.06119 40.9994 349)"/></g></svg>