<?xml version="1.0" encoding="UTF-8" standalone="no"?>
<svg
   id="Calque_2"
   data-name="Calque 2"
   viewBox="0 0 68.41 79.02"
   version="1.1"
   sodipodi:docname="fgs-logo.svg"
   inkscape:version="1.3 (0e150ed6c4, 2023-07-21)"
   xmlns:inkscape="http://www.inkscape.org/namespaces/inkscape"
   xmlns:sodipodi="http://sodipodi.sourceforge.net/DTD/sodipodi-0.dtd"
   xmlns="http://www.w3.org/2000/svg"
   xmlns:svg="http://www.w3.org/2000/svg">
  <sodipodi:namedview
     id="namedview4"
     pagecolor="#ffffff"
     bordercolor="#000000"
     borderopacity="0.25"
     inkscape:showpageshadow="2"
     inkscape:pageopacity="0.0"
     inkscape:pagecheckerboard="0"
     inkscape:deskcolor="#d1d1d1"
     inkscape:zoom="15.401165"
     inkscape:cx="34.218191"
     inkscape:cy="39.509998"
     inkscape:window-width="2560"
     inkscape:window-height="1494"
     inkscape:window-x="-11"
     inkscape:window-y="-11"
     inkscape:window-maximized="1"
     inkscape:current-layer="Calque_2" />
  <defs
     id="defs2">
    <style
       id="style1">&#10;      .cls-1, .cls-2, .cls-3, .cls-4 {&#10;        stroke-width: 0px;&#10;      }&#10;&#10;      .cls-2 {&#10;        fill: #08e;&#10;      }&#10;&#10;      .cls-3 {&#10;        fill: url(#Dégradé_sans_nom_26);&#10;      }&#10;&#10;      .cls-4 {&#10;        fill: #fff;&#10;      }&#10;    </style>
    <linearGradient
       id="Dégradé_sans_nom_26"
       data-name="Dégradé sans nom 26"
       x1="21.53"
       y1="27.86"
       x2="72.06"
       y2="78.4"
       gradientUnits="userSpaceOnUse">
      <stop
         offset="0"
         stop-color="#00beff"
         id="stop1" />
      <stop
         offset="1"
         stop-color="blue"
         id="stop2" />
    </linearGradient>
  </defs>
  <g
     id="Calque_1-2"
     data-name="Calque 1">
    <g
       id="g4">
      <g
         id="path116">
        <path
           class="cls-2"
           d="m51.13,30.52c-8.36,4.75-15.57,8.85-16.02,9.11l-.83.47-16.13-8.99C9.28,26.15,2,22.1,1.99,22.1c-.01,0-.03,8.32-.02,18.51v18.53s16.48,8.86,16.48,8.86l16.47,8.86,15.73-9.03,15.73-9.03v-18.46c.01-10.15,0-18.46,0-18.46-.02,0-6.87,3.89-15.23,8.65h0Z"
           id="path2" />
        <path
           class="cls-3"
           d="m51.13,30.52c-8.36,4.75-15.57,8.85-16.02,9.11l-.83.47-16.13-8.99C9.28,26.15,2,22.1,1.99,22.1c-.01,0-.03,8.32-.02,18.51v18.53s16.48,8.86,16.48,8.86l16.47,8.86,15.73-9.03,15.73-9.03v-18.46c.01-10.15,0-18.46,0-18.46-.02,0-6.87,3.89-15.23,8.65h0Z"
           id="path3" />
      </g>
      <path
         id="path1952"
         class="cls-4"
         d="m17.82,10.41C8.91,15.68,1.58,20.01,1.53,20.04c-.08.05.71.52,16.47,9.64,9.11,5.27,16.57,9.59,16.59,9.6.04.02,32.39-19.16,32.39-19.2,0-.03-32.82-19.22-32.9-19.24-.04,0-7.36,4.29-16.27,9.56Z" />
      <path
         id="path4"
         class="cls-1"
         d="m31.16,1.73c-1.62.95-4.09,2.37-5.47,3.17-1.37.78-7.11,4.09-12.73,7.34S2.12,18.51,1.36,18.93l-1.36.8v39.55l17.1,9.87,17.1,9.87,2-1.14c5.37-3.12,29.65-17.13,30.85-17.82l1.36-.78V19.73l-14.09-8.14c-7.76-4.47-15.45-8.92-17.1-9.87S34.19-.02,34.18,0c-.03,0-1.37.78-3.01,1.73Zm6.81,4.53c1.97,1.14,3.58,2.11,3.58,2.16s-4.95,2.92-11.01,6.4c-6.04,3.48-11,6.36-11.01,6.4,0,.09,3.19,1.95,3.51,2.06.16.05,2.23-1.14,16.06-9.14,3.26-1.87,6.01-3.45,6.12-3.5.22-.08,18.51,10.39,18.51,10.59,0,.06-2.83,1.75-6.28,3.75-3.47,1.98-9.92,5.72-14.35,8.28-4.42,2.56-8.23,4.73-8.45,4.83-.37.17-.67.05-4.01-1.87-1.98-1.14-3.61-2.12-3.61-2.17s.3-.27.67-.47c.67-.39,12.61-7.26,18.2-10.5l3.17-1.83-1.48-.87c-.81-.48-1.66-.95-1.86-1.05-.36-.17-1.14.25-9.79,5.25-5.17,2.98-10.12,5.84-11,6.34-.86.52-1.66.92-1.75.92-.23,0-18.4-10.42-18.45-10.57-.03-.08,3.23-2.03,7.25-4.34,4.03-2.33,10.61-6.12,14.65-8.47s7.44-4.25,7.56-4.26c.11,0,1.81.94,3.78,2.06Zm-19.77,25.84l14.76,8.53v4.3c0,2.36-.05,4.25-.11,4.22-3.11-1.81-22.1-12.76-22.15-12.76s-.08.94-.08,2.09v2.08l11.17,6.47,11.17,6.47v4.25c0,2.34-.03,4.26-.06,4.26s-5.03-2.87-11.11-6.4c-6.08-3.51-11.07-6.4-11.11-6.4s-.06,2.86-.06,6.34c0,3.87-.06,6.31-.14,6.28-.09-.03-1.73-.97-3.67-2.08l-3.51-2.03-.02-17.07c0-9.37.03-17.06.08-17.06.03,0,6.72,3.84,14.84,8.53Zm46.94-4.28l-.02,4.26-11.07,6.4-11.09,6.39v8.58c0,6.81.05,8.54.2,8.43.09-.06,3.42-2,7.37-4.3l7.19-4.17.05-2.12c.02-1.16.02-2.11-.03-2.11-.03,0-2.44,1.37-5.33,3.06-2.91,1.67-5.37,3.09-5.48,3.14-.19.06-.22-.58-.19-4.19l.05-4.28,9.11-5.26c5.01-2.91,9.15-5.28,9.18-5.28s.06,4.8.06,10.65v10.67l-.59.33c-.31.17-4.06,2.34-8.31,4.81-15.34,8.93-20.32,11.82-20.54,11.9-.2.08-.23-1.97-.23-17.01v-17.1l14.73-8.51c8.09-4.69,14.76-8.53,14.84-8.53.06-.02.11,1.91.11,4.23Z" />
    </g>
  </g>
</svg>
